<?xml version="1.0" standalone="no"?><!DOCTYPE svg PUBLIC "-//W3C//DTD SVG 1.1//EN" "http://www.w3.org/Graphics/SVG/1.1/DTD/svg11.dtd"><svg t="1758644961639" class="icon" viewBox="0 0 4773 1024" version="1.1" xmlns="http://www.w3.org/2000/svg" p-id="6702" xmlns:xlink="http://www.w3.org/1999/xlink" width="932.2265625" height="200"><path d="M1708.406569 796.092024h-2.196251l-134.184415-536.114842h-157.785925L1280.612821 796.092024H1278.41657l-124.252113-536.114842H988.101614l208.955308 750.560779h156.671409l138.03605-513.037811h2.753509l138.003271 513.037811h157.818704l208.39805-750.560779h-166.046453z m1983.313508-548.227005c-197.92488 0-316.145497 128.120138-316.145497 343.090553v90.734691c0 217.199446 117.679748 341.451559 315.637409 341.45156 198.498528 0 297.444578-120.974126 297.444578-256.223887v-13.734767h-149.033698c0 77.508013-38.499962 138.00327-145.739321 138.00327-107.731056 0-160.539434-66.559535-160.539433-209.496176v-90.734691c0-141.297648 53.332855-212.233295 159.457698-212.233296 99.519698 0 146.804667 65.985887 146.804666 140.215912h149.017308v-7.70327c0.03278-146.247409-111.058214-263.369899-296.90371-263.369899z m-1441.691647 12.112163l-241.948251 750.544389h155.606063l54.332641-189.156264h237.424629l53.513145 189.156264h166.6201L2434.185764 259.977182h-184.157334z m1.212856 445.937409l85.653811-298.051006h1.655384l84.326226 298.051006h-171.635421zM4616.555057 259.977182v301.296214h-306.786842V259.977182h-155.622453v750.560779h155.622453V690.50805h306.786842v320.029911h156.1961V259.977182z m-1943.69903 129.759132H2896.103361v620.801647h155.065194V389.736314h223.771811V259.977182h-602.084339zM619.426369 247.356931c-84.309836-6.211786-155.802742 47.104679-195.695849 47.104679-40.466755 0-102.879635-45.760704-169.094981-44.547849-86.883057 1.343975-166.980679 50.530176-211.774377 128.415157-90.275773 156.704189-23.044252 388.834868 64.871371 515.90605 43.007195 62.199811 94.274918 132.168453 161.65395 129.611622 64.871371-2.54044 89.374327-41.991019 167.751006-41.991019 78.327509 0 100.437534 41.991019 169.013031 40.663434 69.771962-1.229245 114.008402-63.314327 156.687799-125.858327 49.41566-72.066553 69.706402-141.838516 70.919257-145.624591-1.557044-0.540868-136.052868-52.23473-137.396842-207.168805-1.212855-129.496893 105.731484-191.811434 110.615685-194.810792-60.724717-89.374327-154.524327-99.241069-187.55005-101.699559z m-52.03805-83.949258c35.795623-43.203874 59.90522-103.535233 53.267295-163.407673-51.529962 1.999572-113.844503 34.336918-150.787421 77.524402-33.107673 38.319673-62.183421 99.634428-54.299861 158.392352 57.479509 4.425283 116.040755-29.206868 151.819987-72.509081z" fill="" p-id="6703"></path></svg>