<?xml version="1.0" standalone="no"?><!DOCTYPE svg PUBLIC "-//W3C//DTD SVG 1.1//EN" "http://www.w3.org/Graphics/SVG/1.1/DTD/svg11.dtd"><svg t="1758281149213" class="icon" viewBox="0 0 1024 1024" version="1.1" xmlns="http://www.w3.org/2000/svg" p-id="4542" xmlns:xlink="http://www.w3.org/1999/xlink" width="200" height="200"><path d="M723.2 537.6c0-96 80-144 83.2-147.2-44.8-67.2-115.2-73.6-140.8-76.8-60.8-6.4-115.2 35.2-147.2 35.2-28.8 0-76.8-35.2-128-32-64 0-124.8 38.4-160 96C163.2 528 214.4 704 281.6 800c32 48 70.4 99.2 121.6 96 48-3.2 67.2-32 124.8-32 57.6 0 76.8 32 128 32s86.4-48 118.4-92.8c38.4-54.4 51.2-105.6 54.4-108.8-6.4-3.2-105.6-41.6-105.6-156.8m-99.2-288c25.6-32 44.8-76.8 38.4-121.6-38.4 0-86.4 25.6-112 57.6-25.6 28.8-48 73.6-41.6 118.4 44.8 3.2 89.6-22.4 115.2-54.4" fill="#040000" p-id="4543"></path></svg>